<?xml version="1.0" encoding="UTF-8"?>
<svg id="_图层_1" data-name="图层 1" xmlns="http://www.w3.org/2000/svg" xmlns:xlink="http://www.w3.org/1999/xlink" viewBox="0 0 198.43 198.43">
  <defs>
    <style>
      .cls-1 {
        fill: #f97316;
      }

      .cls-2 {
        fill: #fff;
      }

      .cls-3 {
        fill: url(#_未命名的渐变_32);
      }
    </style>
    <linearGradient id="_未命名的渐变_32" data-name="未命名的渐变 32" x1="215.87" y1="156.69" x2="10.2" y2="55.35" gradientUnits="userSpaceOnUse">
      <stop offset=".23" stop-color="#f97316"/>
      <stop offset="1" stop-color="#f95a16"/>
    </linearGradient>
  </defs>
  <g>
    <path class="cls-3" d="M181.69,154.37c10.57-15.77,16.74-34.74,16.74-55.16C198.43,44.42,154.01,0,99.21,0S0,44.42,0,99.21s44.42,99.21,99.21,99.21c22.37,0,43-7.4,59.6-19.89l38.69,15.44-15.81-39.61Z"/>
    <g>
      <path class="cls-2" d="M162.36,65.83c-8.88-6.31-19.59-7.53-27.78-4.02,9.59,5.92,16.84,14.16,20.43,23.74-10.44-18.33-33.28-30.57-59.29-29.6-6.54,.25-12.83,1.31-18.71,3.07-1.59-.22-3.02-.32-4.35-.41-2.65-.18-4.74-.32-7.05-1.42-2.19-1.04-4.06-3.43-4.76-6.07-.49-1.86-.64-4.71,1.46-7.71,2.2-3.15,5.69-5.09,9.52-5.54,.11,.62,.26,1.23,.48,1.84,2.12,5.88,8.61,8.93,14.49,6.81,5.88-2.12,8.93-8.61,6.81-14.49-2.12-5.88-8.61-8.93-14.49-6.81-3.89,1.4-6.53,4.72-7.26,8.51-5.17,.46-9.93,3.05-12.92,7.32-2.34,3.35-3.08,7.3-2.07,11.11,1.01,3.82,3.68,7.16,6.96,8.73,1.53,.73,2.98,1.14,4.4,1.38-13.39,6.03-23.91,15.9-29.48,27.74,2.02-7.03,5.95-13.51,11.35-19.06-1.37-.16-2.77-.22-4.21-.16-12.93,.49-23.07,9.66-22.67,20.5,.26,6.86,4.68,12.73,11.17,16-.06,1.26-.07,2.53-.02,3.81,1.1,29.15,30.33,51.71,65.29,50.4,33.97-1.28,60.85-24.63,61.35-52.69,4.23-1.39,7.92-3.93,10.54-7.62,7.52-10.57,3.39-26.41-9.21-35.38ZM60.39,113.2c-10.59,.65-13.74-9.53-11.8-15.16,3.05-8.84,12.75-11.59,17.54-12.28,.88-.13,2.1,.35,2.2,1.22,.01,.1,.07,.69-.23,1.04-.41,.48-3.86,2.86-3.86,2.86,0,0,5.55,2.62,7.23,7.93,1.08,3.42,.14,13.69-11.09,14.38Zm67.25-1.23c-11.02,7.25-19.73-.29-21.04-5.47-1.93-7.61,2.16-12.94,2.16-12.94,0,0-5.11-.26-5.78-.55-.41-.17-.59-.36-.65-.46-.48-.9,.07-2.01,1.05-2.3,4.42-1.31,18.22-5.46,24.87-.22,5.39,4.25,8.69,15.8-.62,21.93Z"/>
      <circle class="cls-2" cx="117.7" cy="100.11" r="6.73" transform="translate(-5.41 6.73) rotate(-3.2)"/>
      <circle class="cls-2" cx="58.42" cy="100.15" r="6.39" transform="translate(-26.02 20.69) rotate(-16.48)"/>
    </g>
  </g>
  <path class="cls-1" d="M103.43,133.81c.47-1.03,.01-2.25-1.02-2.72-.28-.13-.57-.19-.86-.18-.78,0-1.52,.45-1.86,1.21-.45,1-.73,1.94-.86,2.82-6.84,3.11-16.64,1.14-18.78-1.29-.41-.47-.98-.7-1.56-.7-.48,0-.96,.17-1.34,.51-.85,.75-.94,2.05-.19,2.9,3.53,4.02,14.32,5.78,22.3,2.84,.58,1.5,1.53,2.58,2.3,3.14,.92,.67,2.2,.46,2.87-.46,.66-.91,.46-2.18-.43-2.85-.37-.29-2.08-1.88-.57-5.21Z"/>
</svg>