<?xml version="1.0" encoding="UTF-8"?>
<svg id="_图层_1" data-name="图层 1" xmlns="http://www.w3.org/2000/svg" xmlns:xlink="http://www.w3.org/1999/xlink" viewBox="0 0 651.61 198.43">
  <defs>
    <style>
      .cls-1 {
        fill: #f97316;
      }

      .cls-2 {
        fill: #fff;
      }

      .cls-3 {
        fill: url(#_未命名的渐变_32);
      }
    </style>
    <linearGradient id="_未命名的渐变_32" data-name="未命名的渐变 32" x1="215.87" y1="156.69" x2="10.2" y2="55.35" gradientUnits="userSpaceOnUse">
      <stop offset=".23" stop-color="#f97316"/>
      <stop offset="1" stop-color="#f95a16"/>
    </linearGradient>
  </defs>
  <g>
    <g>
      <path class="cls-1" d="M258.67,146.26c-4.44-.6-8.06-1.3-10.86-2.1v-15.96c2.72,.96,6.28,1.76,10.68,2.4,4.4,.64,8.68,.96,12.84,.96,5.52,0,9.34-.72,11.46-2.16,2.12-1.44,3.18-4.04,3.18-7.8,0-2.24-.38-4-1.14-5.28-.76-1.28-2.2-2.42-4.32-3.42-2.12-1-5.34-2.02-9.66-3.06-6.08-1.44-10.74-3.06-13.98-4.86-3.24-1.8-5.54-4.18-6.9-7.14-1.36-2.96-2.04-6.96-2.04-12,0-8.56,2.58-14.76,7.74-18.6s12.74-5.76,22.74-5.76c4.4,0,8.44,.28,12.12,.84,3.68,.56,6.76,1.28,9.24,2.16v15c-2.16-.72-5.3-1.4-9.42-2.04-4.12-.64-7.86-.96-11.22-.96-4.88,0-8.34,.64-10.38,1.92-2.04,1.28-3.06,3.6-3.06,6.96,0,1.92,.34,3.42,1.02,4.5,.68,1.08,2,2.04,3.96,2.88,1.96,.84,5.02,1.78,9.18,2.82,6.72,1.68,11.78,3.56,15.18,5.64,3.4,2.08,5.76,4.72,7.08,7.92,1.32,3.2,1.98,7.52,1.98,12.96,0,8.4-2.54,14.68-7.62,18.84-5.08,4.16-13.22,6.24-24.42,6.24-4.48,0-8.94-.3-13.38-.9Z"/>
      <path class="cls-1" d="M374.53,81.16v64.8h-15.72l-1.32-7.8c-3.44,6-10.08,9-19.92,9-7.76,0-13.32-1.78-16.68-5.34-3.36-3.56-5.04-8.98-5.04-16.26v-44.4h17.4v39.72c0,4.4,.74,7.52,2.22,9.36,1.48,1.84,4.26,2.76,8.34,2.76,3.52,0,6.4-.7,8.64-2.1,2.24-1.4,3.84-3.7,4.8-6.9v-42.84h17.28Z"/>
      <path class="cls-1" d="M441.85,83.98c3.76,2.68,6.36,6.44,7.8,11.28,1.44,4.84,2.16,10.94,2.16,18.3,0,10.56-1.86,18.8-5.58,24.72-3.72,5.92-10.46,8.88-20.22,8.88-5.84,0-10.28-.88-13.32-2.64-3.04-1.76-5.24-4.32-6.6-7.68l-1.2,9.12h-15.84V54.76h17.4v34.2c1.44-2.72,3.74-4.9,6.9-6.54,3.16-1.64,7.38-2.46,12.66-2.46,6.8,0,12.08,1.34,15.84,4.02Zm-10.5,44.76c1.8-3.48,2.7-8.54,2.7-15.18s-.9-11.94-2.7-15.42c-1.8-3.48-5.42-5.22-10.86-5.22s-9.6,1.7-11.76,5.1c-2.16,3.4-3.24,8.58-3.24,15.54s1.1,11.8,3.3,15.24c2.2,3.44,6.1,5.16,11.7,5.16s9.06-1.74,10.86-5.22Z"/>
      <path class="cls-1" d="M500.53,79.96l-.48,15.48h-1.68c-4.56,0-8.48,1.04-11.76,3.12-3.28,2.08-5.36,5.6-6.24,10.56v36.84h-17.4V81.16h17.4v11.64c1.84-4.88,4.34-8.24,7.5-10.08,3.16-1.84,6.94-2.76,11.34-2.76h1.32Z"/>
      <path class="cls-1" d="M510.31,71.56c-1.32-.4-2.24-1.24-2.76-2.52-.52-1.28-.78-3.32-.78-6.12s.26-4.7,.78-5.94c.52-1.24,1.44-2.06,2.76-2.46,1.32-.4,3.38-.6,6.18-.6s4.96,.2,6.24,.6c1.28,.4,2.18,1.2,2.7,2.4,.52,1.2,.78,3.2,.78,6s-.26,4.84-.78,6.12c-.52,1.28-1.44,2.12-2.76,2.52-1.32,.4-3.38,.6-6.18,.6s-4.86-.2-6.18-.6Zm-2.58,9.6h17.4v64.8h-17.4V81.16Z"/>
      <path class="cls-1" d="M536.65,144.64v-14.52c3.04,.96,6.32,1.7,9.84,2.22,3.52,.52,6.76,.78,9.72,.78,3.92,0,6.7-.46,8.34-1.38,1.64-.92,2.46-2.62,2.46-5.1,0-1.84-.32-3.24-.96-4.2-.64-.96-1.8-1.78-3.48-2.46-1.68-.68-4.36-1.46-8.04-2.34-4.64-1.12-8.18-2.4-10.62-3.84-2.44-1.44-4.14-3.28-5.1-5.52-.96-2.24-1.44-5.24-1.44-9,0-6.32,2.04-11.12,6.12-14.4,4.08-3.28,10.68-4.92,19.8-4.92,3.44,0,6.82,.2,10.14,.6,3.32,.4,5.86,.92,7.62,1.56l-.72,13.32c-1.92-.64-4.46-1.2-7.62-1.68-3.16-.48-6.1-.72-8.82-.72-3.92,0-6.6,.44-8.04,1.32-1.44,.88-2.16,2.44-2.16,4.68,0,1.36,.3,2.4,.9,3.12,.6,.72,1.64,1.36,3.12,1.92,1.48,.56,4.14,1.32,7.98,2.28,4.8,1.2,8.46,2.56,10.98,4.08,2.52,1.52,4.3,3.5,5.34,5.94,1.04,2.44,1.56,5.7,1.56,9.78,0,7.36-2.22,12.62-6.66,15.78-4.44,3.16-11.02,4.74-19.74,4.74-7.76,0-14.6-.68-20.52-2.04Z"/>
      <path class="cls-1" d="M651.01,117.4l-41.76,2.64c.32,4.64,1.88,8.04,4.68,10.2,2.8,2.16,7.08,3.24,12.84,3.24,3.84,0,7.82-.46,11.94-1.38,4.12-.92,7.3-1.98,9.54-3.18v13.68c-2.08,1.2-5.4,2.26-9.96,3.18-4.56,.92-9.52,1.38-14.88,1.38-6.96,0-12.74-1-17.34-3-4.6-2-8.12-5.46-10.56-10.38-2.44-4.92-3.66-11.66-3.66-20.22s1.24-15.3,3.72-20.22c2.48-4.92,6.04-8.38,10.68-10.38,4.64-2,10.52-3,17.64-3s12.84,1.16,16.92,3.48c4.08,2.32,6.9,5.54,8.46,9.66,1.56,4.12,2.34,9.22,2.34,15.3,0,2.96-.2,5.96-.6,9Zm-15.24-11.52c0-4.08-.8-7.24-2.4-9.48-1.6-2.24-4.76-3.36-9.48-3.36-5.28,0-8.98,1.14-11.1,3.42-2.12,2.28-3.3,6.1-3.54,11.46l26.52-2.04Z"/>
    </g>
    <path class="cls-1" d="M440.97,189.39c-31.7,0-60.64-9.49-77.42-25.38l11-11.62c13.68,12.95,39.13,21,66.42,21s52.75-8.05,66.42-21l11,11.62c-16.78,15.89-45.72,25.38-77.42,25.38Z"/>
  </g>
  <g>
    <g>
      <path class="cls-3" d="M181.69,154.37c10.57-15.77,16.74-34.74,16.74-55.16C198.43,44.42,154.01,0,99.21,0S0,44.42,0,99.21s44.42,99.21,99.21,99.21c22.37,0,43-7.4,59.6-19.89l38.69,15.44-15.81-39.61Z"/>
      <g>
        <path class="cls-2" d="M162.36,65.83c-8.88-6.31-19.59-7.53-27.78-4.02,9.59,5.92,16.84,14.16,20.43,23.74-10.44-18.33-33.28-30.57-59.29-29.6-6.54,.25-12.83,1.31-18.71,3.07-1.59-.22-3.02-.32-4.35-.41-2.65-.18-4.74-.32-7.05-1.42-2.19-1.04-4.06-3.43-4.76-6.07-.49-1.86-.64-4.71,1.46-7.71,2.2-3.15,5.69-5.09,9.52-5.54,.11,.62,.26,1.23,.48,1.84,2.12,5.88,8.61,8.93,14.49,6.81,5.88-2.12,8.93-8.61,6.81-14.49-2.12-5.88-8.61-8.93-14.49-6.81-3.89,1.4-6.53,4.72-7.26,8.51-5.17,.46-9.93,3.05-12.92,7.32-2.34,3.35-3.08,7.3-2.07,11.11,1.01,3.82,3.68,7.16,6.96,8.73,1.53,.73,2.98,1.14,4.4,1.38-13.39,6.03-23.91,15.9-29.48,27.74,2.02-7.03,5.95-13.51,11.35-19.06-1.37-.16-2.77-.22-4.21-.16-12.93,.49-23.07,9.66-22.67,20.5,.26,6.86,4.68,12.73,11.17,16-.06,1.26-.07,2.53-.02,3.81,1.1,29.15,30.33,51.71,65.29,50.4,33.97-1.28,60.85-24.63,61.35-52.69,4.23-1.39,7.92-3.93,10.54-7.62,7.52-10.57,3.39-26.41-9.21-35.38ZM60.39,113.2c-10.59,.65-13.74-9.53-11.8-15.16,3.05-8.84,12.75-11.59,17.54-12.28,.88-.13,2.1,.35,2.2,1.22,.01,.1,.07,.69-.23,1.04-.41,.48-3.86,2.86-3.86,2.86,0,0,5.55,2.62,7.23,7.93,1.08,3.42,.14,13.69-11.09,14.38Zm67.25-1.23c-11.02,7.25-19.73-.29-21.04-5.47-1.93-7.61,2.16-12.94,2.16-12.94,0,0-5.11-.26-5.78-.55-.41-.17-.59-.36-.65-.46-.48-.9,.07-2.01,1.05-2.3,4.42-1.31,18.22-5.46,24.87-.22,5.39,4.25,8.69,15.8-.62,21.93Z"/>
        <circle class="cls-2" cx="117.7" cy="100.11" r="6.73" transform="translate(-5.41 6.73) rotate(-3.2)"/>
        <circle class="cls-2" cx="58.42" cy="100.15" r="6.39" transform="translate(-26.02 20.69) rotate(-16.48)"/>
      </g>
    </g>
    <path class="cls-1" d="M103.43,133.81c.47-1.03,.01-2.25-1.02-2.72-.28-.13-.57-.19-.86-.18-.78,0-1.52,.45-1.86,1.21-.45,1-.73,1.94-.86,2.82-6.84,3.11-16.64,1.14-18.78-1.29-.41-.47-.98-.7-1.56-.7-.48,0-.96,.17-1.34,.51-.85,.75-.94,2.05-.19,2.9,3.53,4.02,14.32,5.78,22.3,2.84,.58,1.5,1.53,2.58,2.3,3.14,.92,.67,2.2,.46,2.87-.46,.66-.91,.46-2.18-.43-2.85-.37-.29-2.08-1.88-.57-5.21Z"/>
  </g>
</svg>